<?xml version="1.0" standalone="no"?>
<!DOCTYPE svg PUBLIC "-//W3C//DTD SVG 20010904//EN"
 "http://www.w3.org/TR/2001/REC-SVG-20010904/DTD/svg10.dtd">
<svg version="1.0" xmlns="http://www.w3.org/2000/svg"
 width="537.000000pt" height="465.000000pt" viewBox="0 0 537.000000 465.000000"
 preserveAspectRatio="xMidYMid meet">

<g transform="translate(0.000000,465.000000) scale(0.100000,-0.100000)"
fill="#003180" stroke="none">
<path d="M3220 4419 c0 -46 148 -78 174 -37 19 30 -6 42 -37 18 -35 -28 -68
-22 -85 13 -16 33 -52 37 -52 6z"/>
<path d="M2708 4401 c26 -12 27 -25 12 -186 -8 -82 -15 -113 -27 -122 -14 -11
-10 -13 29 -13 25 0 61 -2 79 -5 29 -5 30 -4 12 4 -14 6 -23 19 -23 32 0 19
99 161 122 175 5 3 6 -21 3 -53 -13 -135 -16 -144 -38 -152 -16 -6 -4 -10 46
-15 38 -4 71 -5 74 -2 4 3 1 6 -6 6 -10 0 -12 23 -6 108 11 163 16 185 45 193
20 6 17 7 -16 8 -23 1 -63 3 -90 6 -38 4 -44 3 -26 -4 12 -6 22 -19 22 -29 0
-20 -109 -171 -123 -172 -8 0 -5 43 9 158 4 32 11 45 27 52 17 7 10 9 -29 9
-28 1 -67 3 -85 6 -29 5 -30 4 -11 -4z"/>
<path d="M2521 4381 c-11 -11 -23 -37 -27 -58 -9 -53 -30 -83 -58 -83 -21 0
-24 6 -29 58 -6 51 -4 59 16 76 l22 19 -25 -6 c-14 -4 -52 -7 -85 -8 -33 -1
-50 -4 -38 -6 29 -6 30 -12 43 -160 11 -123 10 -128 -9 -144 -19 -16 -18 -16
27 -12 26 2 57 6 70 9 21 4 21 6 7 20 -17 17 -22 134 -5 134 5 0 31 -33 58
-73 l49 -72 54 4 c42 3 49 5 32 12 -12 4 -40 35 -62 68 -23 33 -48 64 -57 69
-14 8 -14 14 1 68 22 76 31 85 54 55 21 -27 51 -23 51 7 0 43 -55 57 -89 23z"/>
<path d="M3138 4363 c18 -7 15 -45 -16 -173 -22 -92 -32 -117 -49 -125 -19
-10 -16 -13 35 -23 31 -7 68 -15 82 -19 l25 -6 -24 20 c-19 16 -22 23 -13 39
14 25 140 149 146 143 2 -2 -5 -47 -17 -99 -20 -84 -25 -95 -47 -100 -19 -4
-5 -11 57 -26 79 -19 82 -19 62 -1 -11 10 -18 26 -15 35 3 9 17 69 31 132 14
63 32 120 39 125 10 8 -4 15 -57 27 -50 11 -66 12 -54 3 32 -23 19 -51 -58
-120 -84 -75 -85 -74 -52 50 19 68 26 80 47 85 20 5 13 9 -35 18 -79 16 -103
20 -87 15z"/>
<path d="M2167 4347 c-5 -13 -19 -17 -57 -17 -111 0 -190 -74 -190 -177 0 -47
42 -118 83 -140 38 -20 122 -22 158 -3 34 18 79 61 79 77 0 7 -15 -3 -33 -23
-43 -47 -99 -56 -141 -23 -39 31 -66 93 -66 156 0 44 5 58 29 85 40 45 96 46
141 3 34 -32 35 -29 17 34 -10 31 -16 39 -20 28z"/>
<path d="M1645 4178 c-117 -53 -132 -62 -100 -56 17 2 30 -17 77 -112 37 -73
57 -125 55 -142 -4 -31 -10 -32 135 36 l97 45 -17 48 -17 48 -3 -37 c-4 -41
-37 -81 -83 -97 -29 -10 -30 -9 -59 48 -16 32 -26 61 -23 65 13 13 48 5 70
-16 23 -22 23 -19 -7 47 -34 76 -46 94 -37 54 6 -24 -14 -69 -31 -69 -7 0 -62
103 -62 114 0 7 80 36 98 36 10 0 28 -9 40 -20 32 -30 35 -25 12 20 -11 22
-24 40 -28 40 -4 -1 -56 -24 -117 -52z"/>
<path d="M3685 4183 c7 -16 16 -85 20 -155 7 -122 6 -127 -14 -138 -27 -14
-43 -5 -39 22 2 12 -5 26 -15 32 -15 9 -21 7 -32 -8 -26 -34 20 -81 68 -68 10
2 75 49 145 103 70 54 136 99 147 99 13 1 2 10 -29 26 -59 29 -70 30 -37 5 13
-10 21 -23 17 -29 -3 -6 -35 -33 -70 -60 l-63 -50 -7 51 c-11 96 -8 137 12
138 14 0 -90 56 -110 58 -3 1 -1 -11 7 -26z"/>
<path d="M1386 4049 c-43 -28 -53 -39 -38 -39 25 0 95 -101 86 -124 -8 -21
-53 -48 -69 -42 -26 10 -77 96 -72 122 4 24 4 24 -21 8 -14 -9 -40 -25 -59
-36 -33 -20 -45 -35 -19 -25 16 6 39 -18 79 -80 31 -48 63 -56 107 -26 27 18
27 18 53 54 15 20 19 22 27 9 63 -102 61 -98 45 -113 -30 -31 -14 -26 47 13
68 44 82 57 55 47 -14 -5 -32 16 -92 108 -77 118 -83 133 -63 153 24 24 -8 10
-66 -29z"/>
<path d="M4067 4007 c3 -16 -18 -53 -75 -132 -66 -92 -83 -110 -102 -107 -13
1 -22 1 -19 -1 2 -2 29 -22 60 -45 46 -33 56 -37 52 -21 -4 13 8 39 32 74 l37
55 45 -32 c25 -18 46 -35 48 -38 2 -3 -15 -30 -37 -59 -35 -46 -43 -52 -66
-46 -18 4 -7 -8 36 -39 64 -47 84 -57 62 -31 -13 16 -16 12 64 125 84 120 95
131 117 119 34 -18 20 -2 -33 38 -75 56 -82 60 -67 35 11 -18 9 -27 -21 -71
-19 -28 -37 -51 -41 -51 -9 0 -89 61 -89 68 0 4 16 29 36 55 29 40 39 47 57
41 27 -8 19 1 -49 49 -47 34 -51 35 -47 14z"/>
<path d="M1059 3824 c-70 -59 -79 -69 -53 -56 36 19 51 -4 64 -93 6 -44 13
-91 16 -103 3 -13 1 -22 -5 -20 -12 4 -131 146 -131 156 0 5 5 13 12 20 7 7 8
12 3 12 -6 -1 -34 -23 -63 -49 -41 -38 -48 -47 -30 -44 19 4 38 -13 111 -99
66 -77 87 -109 84 -125 -3 -19 6 -14 54 28 60 52 74 69 40 47 -33 -20 -47 4
-60 105 -7 50 -15 99 -17 107 -5 20 124 -120 132 -143 3 -10 0 -26 -8 -35 -7
-9 15 8 50 37 34 30 62 55 62 56 0 1 -10 0 -23 -2 -19 -4 -38 13 -110 97 -48
55 -87 106 -87 113 0 7 5 18 12 25 28 28 -2 8 -53 -34z"/>
<path d="M4409 3763 c10 -20 3 -31 -86 -123 -78 -82 -101 -101 -120 -97 -13 2
-23 4 -23 3 0 -1 28 -28 61 -61 34 -33 56 -50 50 -38 -16 31 -4 51 38 62 121
32 164 42 167 39 5 -6 -106 -127 -128 -139 -14 -8 -23 -7 -35 3 -40 33 -2 -13
52 -62 33 -30 54 -47 47 -38 -21 27 -9 47 93 148 90 89 96 94 118 81 12 -7 -5
14 -38 48 -33 34 -63 61 -68 61 -5 0 -4 -7 3 -15 26 -32 3 -52 -88 -74 -48
-12 -96 -25 -107 -28 -22 -6 99 135 123 145 8 3 23 0 33 -7 36 -22 16 4 -44
59 -33 30 -55 45 -48 33z"/>
<path d="M701 3475 c-50 -57 -91 -107 -91 -111 0 -4 5 -3 12 4 22 22 40 13
140 -74 85 -74 99 -90 95 -111 -2 -14 -1 -21 3 -16 4 4 27 30 51 57 32 36 38
47 23 42 -16 -5 -42 12 -120 80 -54 47 -103 90 -107 94 -4 4 12 29 36 56 43
47 46 49 76 37 39 -14 40 -3 2 25 l-29 21 -91 -104z"/>
<path d="M4704 3448 c1 -16 -22 -41 -89 -96 -111 -91 -128 -100 -152 -81 -16
12 -17 12 -7 -1 116 -161 175 -205 234 -175 35 18 46 53 32 95 -10 28 -10 29
8 20 35 -19 78 -12 96 15 25 38 11 81 -52 160 -72 90 -71 90 -70 63z m76 -97
c17 -32 11 -58 -17 -80 -29 -23 -56 -21 -86 8 -17 17 -16 19 29 54 54 43 60
44 74 18z m-116 -93 c21 -30 20 -50 -5 -82 -15 -19 -30 -26 -53 -26 -33 0 -72
29 -65 49 4 11 90 80 101 80 4 1 14 -9 22 -21z"/>
<path d="M3970 3410 c0 -12 -10 -25 -26 -32 l-25 -12 25 -13 c15 -8 26 -22 26
-33 0 -11 5 -20 10 -20 6 0 10 9 10 20 0 12 10 25 26 32 l25 12 -25 13 c-15 8
-26 22 -26 33 0 11 -4 20 -10 20 -5 0 -10 -9 -10 -20z"/>
<path d="M1790 3386 c0 -20 517 -28 1249 -18 453 5 585 10 589 20 3 9 -185 12
-917 12 -778 0 -921 -2 -921 -14z"/>
<path d="M1806 3335 c5 -13 115 -15 899 -15 784 0 894 2 899 15 5 13 -99 15
-899 15 -800 0 -904 -2 -899 -15z"/>
<path d="M1820 3290 c0 -7 302 -10 885 -10 583 0 885 3 885 10 0 7 -302 10
-885 10 -583 0 -885 -3 -885 -10z"/>
<path d="M1840 3241 c6 -13 10 -166 10 -430 l0 -411 855 0 855 0 0 411 c0 264
4 417 10 430 11 19 -2 19 -865 19 -863 0 -876 0 -865 -19z m180 -158 c1 -17 1
-17 11 0 6 10 22 17 39 17 l30 0 0 -65 0 -65 -30 0 c-17 0 -33 7 -39 18 -10
16 -10 16 -11 0 0 -13 -8 -18 -30 -18 l-30 0 0 65 0 65 30 0 c22 0 30 -5 30
-17z m150 -48 l0 -65 -30 0 -30 0 0 65 0 65 30 0 30 0 0 -65z m170 0 l0 -65
-35 0 -35 0 0 58 c0 32 3 62 7 65 3 4 19 7 35 7 28 0 28 0 28 -65z m70 0 l0
-65 -30 0 -30 0 0 65 0 65 30 0 30 0 0 -65z m80 0 l0 -65 -35 0 -35 0 0 65 0
65 35 0 35 0 0 -65z m165 0 l0 -60 -32 -3 -33 -3 0 66 0 66 33 -3 32 -3 0 -60z
m73 -2 l3 -63 -31 0 -30 0 0 66 0 65 28 -3 c26 -3 27 -6 30 -65z m72 2 l0 -65
-30 0 -30 0 0 65 0 65 30 0 30 0 0 -65z m180 0 l0 -65 -30 0 -30 0 0 65 0 65
30 0 30 0 0 -65z m75 0 l0 -60 -32 -3 -33 -3 0 66 0 66 33 -3 32 -3 0 -60z
m75 0 l0 -65 -30 0 -30 0 0 65 0 65 30 0 30 0 0 -65z m170 53 c0 -9 3 -9 12 0
15 15 51 15 66 0 9 -9 12 -9 12 0 0 7 13 12 30 12 l30 0 0 -65 0 -65 -29 0
c-16 0 -32 6 -35 13 -5 10 -7 10 -12 0 -7 -16 -46 -17 -62 -1 -9 9 -12 9 -12
0 0 -7 -13 -12 -30 -12 l-30 0 0 65 0 65 30 0 c17 0 30 -5 30 -12z m-1200
-188 l0 -60 -70 0 -70 0 0 60 0 60 70 0 70 0 0 -60z m70 0 l0 -60 -30 0 -30 0
0 60 0 60 30 0 30 0 0 -60z m170 0 l0 -60 -35 0 -35 0 0 53 c0 62 3 67 42 67
28 0 28 -1 28 -60z m70 0 l0 -60 -30 0 -30 0 0 60 0 60 30 0 30 0 0 -60z m80
0 l0 -60 -35 0 -35 0 0 60 0 60 35 0 35 0 0 -60z m171 38 l2 -23 4 23 c3 17
11 22 34 22 29 0 29 0 29 -59 l0 -60 -70 0 -70 0 0 59 0 60 35 0 c29 0 35 -4
36 -22z m139 -38 l0 -60 -30 0 -30 0 0 60 0 60 30 0 30 0 0 -60z m180 0 l0
-60 -30 0 -30 0 0 60 0 60 30 0 30 0 0 -60z m78 48 c9 -9 12 -9 12 0 0 7 13
12 30 12 30 0 30 0 30 -59 l0 -60 -70 0 -70 0 0 59 c0 59 0 60 28 60 15 0 33
-5 40 -12z m315 -2 c6 -8 10 -8 14 2 2 6 18 12 34 12 29 0 29 0 29 -59 l0 -59
-70 0 -70 0 -2 46 -2 47 -3 -47 c-4 -46 -6 -48 -34 -48 -29 0 -29 0 -29 59 l0
60 63 -1 c34 0 66 -6 70 -12z m-1353 -326 c0 -49 -1 -50 -30 -50 -29 0 -30 1
-30 50 0 49 1 50 30 50 29 0 30 -1 30 -50z m80 0 l0 -50 -35 0 -35 0 0 50 0
50 35 0 35 0 0 -50z m70 0 c0 -49 -1 -50 -30 -50 -29 0 -30 1 -30 50 0 49 1
50 30 50 29 0 30 -1 30 -50z m170 0 l0 -50 -35 0 -35 0 0 50 0 50 35 0 35 0 0
-50z m70 0 c0 -49 -1 -50 -30 -50 -29 0 -30 1 -30 50 0 49 1 50 30 50 29 0 30
-1 30 -50z m78 -2 l3 -48 -35 0 -36 0 0 51 0 50 33 -3 c31 -3 32 -5 35 -50z
m162 37 c0 -8 5 -15 10 -15 6 0 10 7 10 15 0 10 10 15 31 15 30 0 30 -1 27
-47 -3 -44 -5 -48 -30 -51 -23 -3 -28 1 -28 17 0 12 -4 21 -10 21 -5 0 -10 -9
-10 -20 0 -16 -7 -20 -30 -20 -29 0 -30 1 -30 50 0 49 1 50 30 50 20 0 30 -5
30 -15z m150 -35 c0 -49 -1 -50 -30 -50 -29 0 -30 1 -30 50 0 49 1 50 30 50
29 0 30 -1 30 -50z m180 0 c0 -49 -1 -50 -30 -50 -29 0 -30 1 -30 50 0 49 1
50 30 50 29 0 30 -1 30 -50z m80 0 l0 -50 -35 0 -35 0 0 50 0 50 35 0 35 0 0
-50z m70 0 c0 -49 -1 -50 -30 -50 -29 0 -30 1 -30 50 0 49 1 50 30 50 29 0 30
-1 30 -50z m170 0 c0 -49 -1 -50 -30 -50 -29 0 -30 1 -30 50 0 49 1 50 30 50
29 0 30 -1 30 -50z m78 38 c9 -9 12 -9 12 0 0 7 13 12 30 12 29 0 30 -1 30
-49 l0 -49 -70 0 -70 0 0 49 c0 47 1 49 28 49 15 0 33 -5 40 -12z m-1357 -110
c0 -10 2 -10 6 0 2 6 20 12 39 12 l34 0 0 -55 c0 -54 0 -55 -30 -55 -17 0 -33
7 -39 18 -10 16 -10 16 -11 0 0 -13 -8 -18 -30 -18 -30 0 -30 1 -30 55 0 54 0
55 30 55 17 0 30 -5 31 -12z m149 -43 c0 -54 0 -55 -30 -55 -30 0 -30 1 -30
55 0 54 0 55 30 55 30 0 30 -1 30 -55z m170 -1 l0 -55 -32 3 c-32 3 -33 4 -36
56 l-3 52 35 0 36 0 0 -56z m70 1 c0 -54 0 -55 -30 -55 -30 0 -30 1 -30 55 0
54 0 55 30 55 30 0 30 -1 30 -55z m78 3 c-3 -52 -4 -53 -35 -56 l-33 -3 0 55
0 56 36 0 35 0 -3 -52z m171 35 c10 -17 10 -17 11 0 0 12 8 17 31 17 l30 0 -3
-52 c-3 -50 -5 -53 -31 -56 -21 -3 -29 2 -36 20 l-10 23 0 -22 c-1 -19 -7 -23
-31 -23 -30 0 -30 1 -30 55 0 54 0 55 30 55 17 0 33 -7 39 -17z m141 -38 c0
-54 0 -55 -30 -55 -30 0 -30 1 -30 55 0 54 0 55 30 55 30 0 30 -1 30 -55z
m180 0 c0 -54 0 -55 -30 -55 -30 0 -30 1 -30 55 0 54 0 55 30 55 30 0 30 -1
30 -55z m78 3 c-3 -52 -4 -53 -35 -56 l-33 -3 0 55 0 56 36 0 35 0 -3 -52z
m72 -3 c0 -54 0 -55 -30 -55 -30 0 -30 1 -30 55 0 54 0 55 30 55 30 0 30 -1
30 -55z m170 0 c0 -54 0 -55 -30 -55 -30 0 -30 1 -30 55 0 54 0 55 30 55 30 0
30 -1 30 -55z m74 43 c5 -10 7 -10 12 0 3 6 19 12 35 12 29 0 29 -1 29 -55 0
-54 -1 -55 -28 -55 -15 0 -33 5 -40 12 -9 9 -12 9 -12 -1 0 -8 -10 -11 -27 -9
-26 3 -28 7 -31 56 -3 52 -3 52 27 52 16 0 32 -6 35 -12z"/>
<path d="M523 3220 c-97 -59 -118 -193 -41 -267 101 -97 244 -57 288 81 21 67
-21 155 -91 191 -40 21 -117 19 -156 -5z m73 -45 c90 -38 164 -118 149 -164
-24 -78 -133 -67 -234 25 -47 41 -57 74 -36 113 22 44 59 52 121 26z"/>
<path d="M4925 3153 c0 -23 -10 -34 -67 -68 -37 -22 -92 -53 -123 -70 -55 -29
-56 -30 -71 -11 -31 42 -11 0 52 -110 71 -123 64 -118 132 -93 31 12 28 18 -8
17 -17 -1 -41 4 -54 11 -25 14 -56 60 -56 84 0 16 100 78 113 70 14 -9 7 -53
-13 -73 -29 -29 -13 -24 65 21 64 36 67 39 32 33 -36 -6 -67 6 -67 27 0 8 98
69 110 69 3 0 13 -13 23 -29 22 -37 22 -80 0 -110 l-16 -24 42 23 c23 13 40
27 39 30 -7 14 -130 230 -132 230 -1 0 -2 -12 -1 -27z"/>
<path d="M910 3115 c0 -13 58 -15 465 -15 407 0 465 2 465 15 0 13 -58 15
-465 15 -407 0 -465 -2 -465 -15z"/>
<path d="M3572 3118 c4 -10 108 -14 466 -16 407 -2 462 0 462 13 0 13 -57 15
-466 15 -368 0 -465 -3 -462 -12z"/>
<path d="M1176 3080 c-210 -4 -256 -7 -244 -18 12 -9 114 -12 459 -10 387 3
444 5 444 18 0 13 -29 15 -200 15 -110 1 -317 -2 -459 -5z"/>
<path d="M3580 3072 l0 -22 444 0 c418 0 476 3 453 26 -3 3 -206 8 -451 11
l-446 6 0 -21z"/>
<path d="M940 3025 c0 -13 57 -15 450 -15 393 0 450 2 450 15 0 13 -57 15
-450 15 -393 0 -450 -2 -450 -15z"/>
<path d="M3577 3034 c-4 -4 -4 -11 -1 -15 3 -5 205 -9 450 -9 388 0 444 2 444
15 0 13 -56 15 -443 15 -244 0 -447 -3 -450 -6z"/>
<path d="M1290 2993 l-335 -3 0 -243 c0 -133 1 -290 3 -349 l2 -108 440 0 440
0 -2 353 -3 352 -105 0 c-58 0 -256 -1 -440 -2z m380 -258 c0 -41 -2 -45 -25
-45 -22 0 -25 4 -25 38 0 43 5 52 32 52 15 0 18 -8 18 -45z m66 21 c10 -41 1
-61 -29 -64 -25 -3 -27 -1 -27 36 0 43 5 52 31 52 11 0 21 -10 25 -24z m-66
-116 c0 -36 -2 -40 -25 -40 -22 0 -25 4 -25 40 0 36 3 40 25 40 23 0 25 -4 25
-40z m70 0 c0 -38 -2 -40 -30 -40 -28 0 -30 2 -30 40 0 38 2 40 30 40 28 0 30
-2 30 -40z m-70 -166 c0 -41 -2 -45 -22 -42 -19 2 -24 10 -26 46 -3 39 -1 42
22 42 24 0 26 -3 26 -46z m65 1 c0 -36 -3 -40 -27 -43 -27 -3 -28 -2 -28 43 0
45 1 46 28 43 24 -3 27 -7 27 -43z m-65 -95 c0 -36 -2 -40 -25 -40 -22 0 -25
4 -25 40 0 36 3 40 25 40 23 0 25 -4 25 -40z m65 0 c0 -31 -3 -35 -27 -38 -27
-3 -28 -1 -28 38 0 39 1 41 28 38 24 -3 27 -7 27 -38z"/>
<path d="M3577 2758 c-4 -128 -7 -286 -7 -350 l0 -118 440 0 439 0 3 350 3
350 -436 0 -436 0 -6 -232z m153 -23 c0 -41 -2 -45 -25 -45 -23 0 -25 4 -25
45 0 41 2 45 25 45 23 0 25 -4 25 -45z m64 30 c3 -8 3 -29 -1 -45 -4 -23 -11
-30 -29 -30 -22 0 -24 4 -24 45 0 41 2 45 24 45 13 0 26 -7 30 -15z m-64 -125
c0 -36 -2 -40 -25 -40 -22 0 -25 4 -25 40 0 36 3 40 25 40 23 0 25 -4 25 -40z
m60 0 c0 -36 -2 -40 -25 -40 -22 0 -25 4 -25 40 0 36 3 40 25 40 23 0 25 -4
25 -40z m-60 -160 c0 -24 -5 -40 -12 -40 -9 0 -9 -3 0 -12 7 -7 12 -29 12 -50
0 -34 -3 -38 -25 -38 -25 0 -25 1 -25 90 0 89 0 90 25 90 23 0 25 -4 25 -40z
m60 0 c0 -36 -2 -40 -25 -40 -22 0 -25 4 -25 40 0 36 3 40 25 40 23 0 25 -4
25 -40z m0 -95 c0 -41 -2 -45 -25 -45 -23 0 -25 4 -25 45 0 41 2 45 25 45 23
0 25 -4 25 -45z"/>
<path d="M280 2810 c-55 -140 -55 -139 -37 -117 19 23 33 22 127 -15 89 -35
140 -74 140 -107 0 -18 -5 -21 -27 -19 -24 3 -28 -1 -28 -22 0 -18 6 -26 23
-28 33 -5 52 15 52 54 0 52 -41 89 -150 134 -52 21 -96 43 -98 48 -5 15 17 62
29 62 16 0 230 -81 246 -93 6 -4 13 -18 15 -30 2 -15 11 -1 27 43 32 87 35 99
21 78 -6 -10 -16 -18 -23 -18 -7 0 -68 22 -137 48 -104 40 -125 52 -130 72 -4
19 -15 0 -50 -90z"/>
<path d="M5100 2812 c0 -17 -21 -29 -131 -72 -128 -49 -132 -50 -152 -33 -20
17 -20 17 -13 -2 45 -117 51 -129 54 -110 5 27 10 31 69 54 l52 20 22 -45 c28
-58 73 -83 117 -65 30 13 52 47 52 81 0 18 -56 179 -66 189 -2 2 -4 -5 -4 -17z
m35 -103 c20 -32 -32 -89 -81 -89 -21 0 -54 28 -54 45 0 7 24 22 53 33 61 24
73 26 82 11z"/>
<path d="M265 2521 c-72 -18 -113 -70 -122 -155 -11 -103 60 -178 167 -178 85
0 139 44 160 132 30 123 -80 231 -205 201z m107 -97 c83 -27 112 -91 63 -139
-29 -30 -93 -33 -174 -9 -72 21 -103 53 -99 102 6 70 83 87 210 46z"/>
<path d="M5030 2448 c-60 -31 -90 -77 -90 -139 0 -26 5 -60 11 -76 13 -36 58
-83 78 -83 10 0 4 9 -16 25 -54 43 -65 112 -24 159 42 49 161 72 220 42 28
-15 51 -53 51 -87 0 -27 -26 -75 -47 -89 -14 -9 -8 -10 27 -5 49 7 60 12 44
23 -6 4 -11 35 -11 68 0 46 -5 70 -22 97 -47 77 -143 105 -221 65z"/>
<path d="M2065 2359 c308 -10 1484 -8 1491 2 3 5 -363 8 -853 7 -589 -1 -789
-4 -638 -9z"/>
<path d="M2763 2313 c-7 -3 -13 -16 -13 -29 0 -15 4 -23 11 -19 6 4 8 13 5 21
-3 7 -1 16 4 19 6 4 11 -6 11 -22 2 -25 2 -26 6 -4 5 26 -6 41 -24 34z"/>
<path d="M2100 2283 c0 -21 3 -24 9 -14 5 8 7 20 4 28 -8 21 -13 15 -13 -14z"/>
<path d="M2150 2304 c0 -5 7 -19 15 -30 8 -10 15 -14 15 -8 0 5 -7 19 -15 30
-8 10 -15 14 -15 8z"/>
<path d="M2202 2285 c0 -16 2 -22 5 -12 2 9 2 23 0 30 -3 6 -5 -1 -5 -18z"/>
<path d="M2226 2293 c-4 -9 -2 -21 4 -27 7 -7 10 -2 10 17 0 31 -5 34 -14 10z"/>
<path d="M2321 2303 c0 -4 4 -17 9 -28 8 -19 9 -19 9 2 1 12 -3 25 -9 28 -5 3
-10 3 -9 -2z"/>
<path d="M2412 2285 c0 -16 2 -22 5 -12 2 9 2 23 0 30 -3 6 -5 -1 -5 -18z"/>
<path d="M2452 2285 c0 -16 2 -22 5 -12 2 9 2 23 0 30 -3 6 -5 -1 -5 -18z"/>
<path d="M2482 2285 c0 -16 2 -22 5 -12 2 9 2 23 0 30 -3 6 -5 -1 -5 -18z"/>
<path d="M2501 2298 c-1 -10 5 -18 13 -18 8 0 17 -6 19 -12 3 -7 6 0 6 16 1
23 -2 26 -13 17 -11 -9 -15 -9 -19 1 -4 8 -6 7 -6 -4z"/>
<path d="M2562 2285 c0 -16 2 -22 5 -12 2 9 2 23 0 30 -3 6 -5 -1 -5 -18z"/>
<path d="M2651 2279 c0 -19 3 -29 5 -22 3 7 13 9 22 6 14 -5 14 -3 -3 18 -11
13 -21 26 -22 28 -2 2 -3 -11 -2 -30z"/>
<path d="M2700 2286 c0 -22 3 -27 11 -19 8 8 8 16 0 30 -9 16 -10 14 -11 -11z"/>
<path d="M2732 2285 c0 -16 2 -22 5 -12 2 9 2 23 0 30 -3 6 -5 -1 -5 -18z"/>
<path d="M2830 2301 c0 -6 4 -13 10 -16 6 -3 7 1 4 9 -7 18 -14 21 -14 7z"/>
<path d="M2882 2285 c0 -16 2 -22 5 -12 2 9 2 23 0 30 -3 6 -5 -1 -5 -18z"/>
<path d="M2900 2286 c0 -14 5 -26 10 -26 6 0 10 9 10 19 0 11 -4 23 -10 26 -6
4 -10 -5 -10 -19z"/>
<path d="M2932 2285 c0 -16 2 -22 5 -12 2 9 2 23 0 30 -3 6 -5 -1 -5 -18z"/>
<path d="M2957 2297 c-3 -8 -1 -20 4 -28 6 -10 9 -7 9 14 0 29 -5 35 -13 14z"/>
<path d="M2980 2285 c0 -22 3 -25 13 -16 8 6 16 9 19 6 2 -3 5 2 5 10 0 8 -3
13 -5 10 -3 -3 -11 0 -19 6 -10 9 -13 6 -13 -16z"/>
<path d="M3032 2285 c0 -16 2 -22 5 -12 2 9 2 23 0 30 -3 6 -5 -1 -5 -18z"/>
<path d="M3081 2283 c2 -25 2 -26 6 -5 4 23 5 23 24 6 18 -16 19 -16 19 0 0 9
-4 15 -9 11 -5 -3 -12 -1 -16 5 -12 19 -25 10 -24 -17z"/>
<path d="M3172 2285 c0 -16 2 -22 5 -12 2 9 2 23 0 30 -3 6 -5 -1 -5 -18z"/>
<path d="M3197 2303 c-11 -10 -8 -43 3 -43 6 0 10 11 10 25 0 26 -2 29 -13 18z"/>
<path d="M3230 2285 c1 -26 2 -28 11 -12 8 14 8 22 0 30 -8 8 -11 3 -11 -18z"/>
<path d="M3272 2285 c0 -16 2 -22 5 -12 2 9 2 23 0 30 -3 6 -5 -1 -5 -18z"/>
<path d="M2060 2285 c0 -8 5 -15 10 -15 6 0 10 7 10 15 0 8 -4 15 -10 15 -5 0
-10 -7 -10 -15z"/>
<path d="M2251 2284 c0 -11 3 -14 6 -6 3 7 2 16 -1 19 -3 4 -6 -2 -5 -13z"/>
<path d="M2277 2281 c-4 -17 -3 -21 5 -13 5 5 8 16 6 23 -3 8 -7 3 -11 -10z"/>
<path d="M2351 2284 c0 -11 3 -14 6 -6 3 7 2 16 -1 19 -3 4 -6 -2 -5 -13z"/>
<path d="M2380 2284 c0 -8 5 -12 10 -9 6 4 8 11 5 16 -9 14 -15 11 -15 -7z"/>
<path d="M2601 2284 c0 -11 3 -14 6 -6 3 7 2 16 -1 19 -3 4 -6 -2 -5 -13z"/>
<path d="M3320 2285 c0 -8 5 -15 10 -15 6 0 10 7 10 15 0 8 -4 15 -10 15 -5 0
-10 -7 -10 -15z"/>
<path d="M965 2247 c-3 -7 -4 -145 -2 -307 l2 -295 3 298 2 297 435 0 435 0 0
-330 0 -330 -440 2 c-242 2 -440 0 -440 -4 0 -5 333 -8 741 -8 696 0 742 -1
757 -18 10 -9 14 -13 10 -8 -5 6 -8 18 -8 27 0 10 3 19 8 22 4 2 0 1 -8 -2 -8
-3 -149 -7 -312 -9 l-298 -3 0 341 0 340 -440 0 c-345 0 -442 -3 -445 -13z"/>
<path d="M3566 2244 c-3 -9 -6 -162 -6 -340 l0 -325 -322 3 c-177 2 -314 1
-304 0 28 -6 14 -35 -25 -55 -84 -41 -271 -48 -369 -14 -49 18 -70 14 -24 -3
58 -23 141 -32 229 -27 113 8 157 20 199 57 l33 30 739 2 739 3 3 299 c1 165
-1 303 -5 307 -5 5 -8 -128 -8 -294 l0 -302 -437 -3 -438 -2 0 330 0 330 440
-2 c347 -2 440 0 440 10 0 9 -94 12 -439 12 -391 0 -440 -2 -445 -16z"/>
<path d="M1987 2214 c-4 -4 -7 -27 -7 -51 0 -42 1 -43 33 -43 32 0 32 1 32 48
0 43 -2 47 -25 50 -14 2 -29 0 -33 -4z"/>
<path d="M2067 2214 c-4 -4 -7 -27 -7 -51 0 -41 1 -43 31 -43 30 0 30 1 27 48
-2 38 -7 48 -23 50 -12 2 -24 0 -28 -4z"/>
<path d="M2320 2172 c0 -48 1 -50 30 -54 29 -4 30 -4 30 39 0 24 1 46 3 51 1
4 -13 8 -30 10 l-33 3 0 -49z"/>
<path d="M2400 2170 c0 -49 1 -50 30 -50 29 0 30 1 30 50 0 49 -1 50 -30 50
-29 0 -30 -1 -30 -50z"/>
<path d="M2950 2171 c0 -50 1 -51 31 -51 30 0 30 1 27 48 -3 43 -5 47 -30 50
-27 3 -28 2 -28 -47z"/>
<path d="M3027 2213 c-4 -3 -7 -26 -7 -50 0 -41 1 -43 30 -43 29 0 30 1 30 50
0 46 -2 50 -23 50 -13 0 -27 -3 -30 -7z"/>
<path d="M3290 2165 c0 -54 0 -55 30 -55 30 0 30 1 30 55 0 54 0 55 -30 55
-30 0 -30 -1 -30 -55z"/>
<path d="M3370 2165 c0 -56 0 -56 28 -53 25 3 27 6 27 53 0 47 -2 50 -27 53
-28 3 -28 3 -28 -53z"/>
<path d="M1630 2141 c0 -34 3 -38 20 -34 11 3 20 13 20 23 0 10 3 25 6 34 5
12 0 16 -20 16 -24 0 -26 -4 -26 -39z"/>
<path d="M1690 2145 c0 -28 4 -35 20 -35 16 0 20 7 20 35 0 28 -4 35 -20 35
-16 0 -20 -7 -20 -35z"/>
<path d="M3680 2140 c0 -36 2 -40 25 -40 24 0 26 3 23 40 -2 34 -5 40 -25 40
-20 0 -23 -5 -23 -40z"/>
<path d="M3740 2140 c0 -36 3 -40 25 -40 23 0 25 4 25 40 0 36 -2 40 -25 40
-22 0 -25 -4 -25 -40z"/>
<path d="M2678 2153 c12 -2 32 -2 45 0 12 2 2 4 -23 4 -25 0 -35 -2 -22 -4z"/>
<path d="M2606 2131 c-16 -11 -38 -34 -50 -53 -19 -30 -21 -51 -26 -265 -3
-128 -2 -233 3 -233 4 0 7 5 7 11 0 5 10 3 22 -5 12 -9 27 -16 33 -16 5 0 -6
10 -25 23 l-35 22 168 3 167 2 0 189 c0 104 -4 191 -8 193 -5 2 -12 16 -16 31
-5 20 -3 27 5 22 8 -6 8 -2 0 14 -7 11 -14 21 -17 21 -3 0 -2 -6 2 -12 4 -7
-7 0 -24 15 -22 22 -36 27 -52 22 -14 -5 -20 -3 -16 3 6 10 -27 13 -81 6 -45
-6 -91 -48 -99 -90 -3 -19 -10 -34 -15 -34 -13 0 0 50 20 80 10 14 33 35 51
48 18 12 29 22 24 22 -5 0 -22 -9 -38 -19z m171 -33 c7 -1 10 -5 7 -9 -2 -5
-11 -6 -20 -2 -8 3 -1 -8 16 -25 32 -33 39 -62 15 -62 -8 0 -15 5 -15 10 0 14
-46 60 -60 60 -5 0 -11 -15 -12 -32 l-1 -33 -4 33 c-2 17 -9 32 -15 32 -16 0
-58 -41 -58 -57 0 -7 -7 -13 -15 -13 -8 0 -15 5 -15 11 0 5 -4 7 -10 4 -12 -7
-12 -3 -4 19 3 9 9 14 13 12 4 -3 22 11 41 29 32 31 39 34 80 29 25 -2 50 -5
57 -6z m-144 -22 c-19 -16 -30 -20 -35 -13 -8 13 0 29 11 23 4 -3 13 -1 21 5
29 18 31 9 3 -15z m-73 -266 c0 -113 -4 -180 -10 -180 -6 0 -10 67 -10 180 0
113 4 180 10 180 6 0 10 -67 10 -180z m252 113 l2 -68 3 63 c7 112 23 67 22
-60 -1 -164 -9 -222 -31 -226 -15 -3 -18 4 -20 40 l-1 43 -4 -43 -4 -43 -98 2
-98 3 -7 119 c-10 195 -9 225 12 230 9 3 63 5 120 6 l102 1 2 -67z m48 -114
c0 -99 -3 -178 -7 -176 -8 5 -5 357 2 357 3 0 5 -81 5 -181z"/>
<path d="M2708 1973 c-60 -3 -78 -7 -78 -18 0 -12 16 -15 74 -15 65 0 74 2 79
20 3 11 4 19 4 18 -1 -1 -37 -4 -79 -5z"/>
<path d="M2582 1930 c0 -19 2 -27 5 -17 2 9 2 25 0 35 -3 9 -5 1 -5 -18z"/>
<path d="M2630 1840 l0 -80 30 0 30 0 0 80 0 80 -30 0 -30 0 0 -80z"/>
<path d="M2710 1840 l0 -80 30 0 30 0 0 80 0 80 -30 0 -30 0 0 -80z"/>
<path d="M2630 1695 c0 -54 0 -55 30 -55 30 0 30 1 30 55 0 54 0 55 -30 55
-30 0 -30 -1 -30 -55z"/>
<path d="M2710 1695 c0 -55 0 -55 31 -55 30 0 30 0 27 52 -3 48 -5 52 -30 55
-28 4 -28 3 -28 -52z"/>
<path d="M2781 1734 c0 -11 3 -14 6 -6 3 7 2 16 -1 19 -3 4 -6 -2 -5 -13z"/>
<path d="M2751 2147 c19 -15 79 -47 79 -43 0 8 -62 46 -74 46 -5 0 -7 -1 -5
-3z"/>
<path d="M101 2109 c-1 -20 -3 -58 -6 -85 -5 -40 -4 -44 5 -25 10 22 14 23 71
18 33 -3 63 -7 65 -10 2 -2 1 -28 -4 -58 l-7 -54 -55 3 c-40 2 -60 9 -72 24
-18 20 -18 19 -18 -33 0 -30 -3 -65 -7 -79 l-6 -25 19 22 c19 23 19 23 154 10
128 -11 135 -13 147 -37 12 -23 13 -22 13 25 0 28 3 68 5 90 4 31 3 35 -4 19
-14 -32 -23 -35 -91 -27 l-62 6 7 56 c4 31 8 58 10 59 2 2 33 1 70 -3 55 -6
68 -11 75 -29 6 -15 9 -5 10 39 0 33 3 71 5 85 l6 25 -11 -24 -10 -24 -131 7
c-148 8 -157 11 -169 40 -7 17 -9 15 -9 -15z"/>
<path d="M5300 2102 c0 -27 -10 -29 -160 -42 -120 -10 -126 -10 -141 9 -16 19
-16 16 -11 -47 2 -37 6 -69 8 -71 2 -2 10 4 19 13 9 9 18 16 20 16 3 0 48 -24
102 -52 l98 -53 -65 -6 c-130 -13 -150 -11 -160 14 -8 19 -9 18 -8 -13 0 -45
15 -152 17 -123 0 12 6 25 11 28 6 3 69 11 142 17 128 10 131 10 147 -11 15
-20 16 -16 11 53 -3 41 -8 78 -12 82 -5 4 -8 -2 -8 -14 0 -33 -29 -28 -133 25
l-92 47 35 7 c31 7 116 12 163 10 10 -1 22 -11 26 -23 6 -14 7 9 4 62 -5 78
-13 122 -13 72z"/>
<path d="M1980 2050 c0 -48 1 -50 29 -50 23 0 30 5 34 29 10 47 -2 71 -34 71
-28 0 -29 -2 -29 -50z"/>
<path d="M2060 2050 c0 -50 1 -51 28 -48 25 3 27 6 27 48 0 42 -2 45 -27 48
-27 3 -28 2 -28 -48z"/>
<path d="M2320 2050 c0 -49 1 -50 30 -50 27 0 30 3 30 34 0 19 3 41 6 50 5 13
-1 16 -30 16 l-36 0 0 -50z"/>
<path d="M2400 2050 c0 -49 1 -50 30 -50 29 0 30 1 30 50 0 49 -1 50 -30 50
-29 0 -30 -1 -30 -50z"/>
<path d="M2950 2050 c0 -47 2 -50 25 -50 14 0 25 6 26 13 0 6 2 29 4 50 3 35
1 37 -26 37 -28 0 -29 -2 -29 -50z"/>
<path d="M3020 2050 c0 -49 1 -50 30 -50 29 0 30 1 30 50 0 49 -1 50 -30 50
-29 0 -30 -1 -30 -50z"/>
<path d="M3290 2050 c0 -49 1 -50 30 -50 29 0 30 1 30 50 0 49 -1 50 -30 50
-29 0 -30 -1 -30 -50z"/>
<path d="M3370 2051 c0 -48 2 -51 25 -51 26 0 27 3 28 65 1 25 -4 31 -26 33
-26 3 -27 2 -27 -47z"/>
<path d="M1630 2050 c0 -33 3 -40 20 -40 17 0 20 7 20 40 0 33 -3 40 -20 40
-17 0 -20 -7 -20 -40z"/>
<path d="M1690 2050 c0 -33 3 -40 20 -40 17 0 20 7 20 40 0 33 -3 40 -20 40
-17 0 -20 -7 -20 -40z"/>
<path d="M3680 2050 c0 -36 3 -40 25 -40 23 0 25 4 25 40 0 36 -2 40 -25 40
-22 0 -25 -4 -25 -40z"/>
<path d="M3740 2050 c0 -36 3 -40 25 -40 23 0 25 4 25 40 0 36 -2 40 -25 40
-22 0 -25 -4 -25 -40z"/>
<path d="M1624 1915 c-11 -27 5 -65 26 -65 17 0 20 7 20 40 0 34 -3 40 -20 40
-11 0 -23 -7 -26 -15z"/>
<path d="M1690 1890 c0 -33 3 -40 20 -40 17 0 20 7 20 40 0 33 -3 40 -20 40
-17 0 -20 -7 -20 -40z"/>
<path d="M3680 1890 c0 -36 3 -40 25 -40 23 0 25 4 25 40 0 36 -2 40 -25 40
-22 0 -25 -4 -25 -40z"/>
<path d="M3740 1890 c0 -36 3 -40 25 -40 23 0 25 4 25 40 0 36 -2 40 -25 40
-22 0 -25 -4 -25 -40z"/>
<path d="M1980 1850 c0 -49 1 -50 30 -50 29 0 30 1 30 50 0 49 -1 50 -30 50
-29 0 -30 -1 -30 -50z"/>
<path d="M2060 1850 c0 -50 1 -51 28 -48 25 3 27 6 27 48 0 42 -2 45 -27 48
-27 3 -28 2 -28 -48z"/>
<path d="M2320 1850 c0 -49 1 -50 30 -50 29 0 30 1 30 50 0 49 -1 50 -30 50
-29 0 -30 -1 -30 -50z"/>
<path d="M2400 1850 c0 -49 1 -50 30 -50 29 0 30 1 30 50 0 49 -1 50 -30 50
-29 0 -30 -1 -30 -50z"/>
<path d="M2950 1846 c0 -56 0 -56 31 -56 l30 0 -3 53 c-3 48 -5 52 -30 55 -28
3 -28 2 -28 -52z"/>
<path d="M3020 1845 c0 -54 0 -55 30 -55 30 0 30 1 30 55 0 54 0 55 -30 55
-30 0 -30 -1 -30 -55z"/>
<path d="M3290 1845 c0 -54 0 -55 30 -55 30 0 30 1 30 55 0 54 0 55 -30 55
-30 0 -30 -1 -30 -55z"/>
<path d="M3367 1893 c-4 -3 -7 -28 -7 -55 l0 -49 33 3 c27 3 33 7 35 32 6 48
-6 76 -32 76 -12 0 -26 -3 -29 -7z"/>
<path d="M1620 1795 c0 -31 3 -35 25 -35 22 0 25 4 25 35 0 31 -3 35 -25 35
-22 0 -25 -4 -25 -35z"/>
<path d="M1690 1795 c0 -28 4 -35 20 -35 16 0 20 7 20 35 0 28 -4 35 -20 35
-16 0 -20 -7 -20 -35z"/>
<path d="M3680 1795 c0 -31 3 -35 25 -35 22 0 25 4 25 35 0 31 -3 35 -25 35
-22 0 -25 -4 -25 -35z"/>
<path d="M3740 1795 c0 -31 3 -35 25 -35 22 0 25 4 25 35 0 31 -3 35 -25 35
-22 0 -25 -4 -25 -35z"/>
<path d="M1980 1740 c0 -49 1 -50 30 -50 29 0 30 1 30 50 0 49 -1 50 -30 50
-29 0 -30 -1 -30 -50z"/>
<path d="M2060 1741 c0 -50 1 -51 31 -51 30 0 30 1 27 48 -3 43 -5 47 -30 50
-27 3 -28 2 -28 -47z"/>
<path d="M2320 1735 c0 -43 1 -45 30 -45 29 0 30 2 30 45 0 43 -1 45 -30 45
-29 0 -30 -2 -30 -45z"/>
<path d="M2400 1735 c0 -43 1 -45 30 -45 29 0 30 2 30 45 0 43 -1 45 -30 45
-29 0 -30 -2 -30 -45z"/>
<path d="M2950 1735 c0 -43 1 -45 30 -45 29 0 30 2 30 45 0 43 -1 45 -30 45
-29 0 -30 -2 -30 -45z"/>
<path d="M3020 1735 c0 -43 1 -45 30 -45 29 0 30 2 30 45 0 43 -1 45 -30 45
-29 0 -30 -2 -30 -45z"/>
<path d="M3290 1735 c0 -43 1 -45 30 -45 29 0 30 2 30 45 0 43 -1 45 -30 45
-29 0 -30 -2 -30 -45z"/>
<path d="M3367 1774 c-4 -4 -7 -25 -7 -46 0 -37 1 -38 36 -38 l35 0 -3 43 c-3
37 -6 42 -28 45 -14 2 -29 0 -33 -4z"/>
<path d="M384 1726 c-7 -18 -151 -136 -166 -136 -14 0 -99 60 -127 90 -18 18
-23 20 -18 7 4 -10 8 -37 8 -60 1 -23 3 -35 6 -25 7 27 28 28 73 0 l44 -25
-39 -34 c-24 -20 -47 -32 -57 -29 -15 3 -18 -2 -17 -37 2 -61 13 -106 21 -86
3 9 40 44 81 77 l75 61 62 -44 c35 -24 69 -54 76 -67 12 -21 13 -18 14 34 0
31 -4 60 -10 63 -5 3 -10 -3 -10 -14 0 -12 -7 -21 -15 -21 -18 0 -95 49 -95
60 0 13 76 70 93 70 8 0 18 -6 20 -12 3 -7 3 21 0 62 -6 81 -9 92 -19 66z"/>
<path d="M5261 1665 c28 -15 43 -52 33 -80 -5 -12 -15 -15 -43 -11 -20 3 -76
8 -126 11 -113 8 -125 12 -125 37 0 47 -8 8 -14 -67 -4 -58 -3 -73 4 -56 9 21
15 23 58 18 26 -4 91 -9 145 -13 90 -6 97 -8 97 -28 0 -27 -27 -66 -45 -66 -8
0 -17 -4 -20 -10 -4 -6 9 -10 33 -10 l40 0 6 108 c4 59 9 124 12 145 l6 37
-44 0 c-43 -1 -43 -1 -17 -15z"/>
<path d="M2848 1593 c-7 -10 -8 -14 -1 -10 6 4 13 1 16 -5 3 -9 8 -10 15 -3 7
7 6 14 -3 22 -10 10 -16 9 -27 -4z"/>
<path d="M2628 1563 c7 -3 16 -2 19 1 4 3 -2 6 -13 5 -11 0 -14 -3 -6 -6z"/>
<path d="M4936 1248 c-15 -71 -26 -131 -24 -133 5 -5 80 -35 86 -35 4 0 -3 7
-14 15 -43 30 -56 124 -21 153 17 14 117 -7 125 -26 7 -19 -24 -42 -57 -43
-20 -1 -16 -4 18 -15 25 -8 61 -16 80 -19 l36 -6 -27 16 c-20 11 -28 24 -28
44 l0 29 63 -16 c34 -8 63 -16 64 -17 1 0 -2 -18 -8 -39 -13 -47 -41 -76 -76
-77 -24 -1 -21 -3 16 -15 25 -8 47 -11 50 -8 9 8 61 247 56 252 -3 3 -5 -3 -5
-13 0 -16 -6 -17 -52 -11 -29 3 -93 16 -143 29 -68 17 -92 27 -100 43 -9 19
-15 1 -39 -108z"/>
<path d="M380 1327 c50 -24 72 -57 68 -101 -3 -27 -8 -31 -53 -43 -69 -17 -75
-17 -75 12 0 18 10 31 33 45 39 24 32 24 -63 0 -41 -10 -65 -19 -52 -19 35 -1
62 -19 62 -41 0 -14 -12 -21 -50 -29 -66 -14 -80 -14 -80 2 0 6 -3 29 -6 49
-6 33 -3 41 24 66 l31 29 -45 -10 c-24 -6 -44 -13 -44 -16 2 -21 59 -253 59
-239 1 24 20 32 160 63 120 27 125 27 138 10 17 -25 17 -19 -16 120 l-28 120
-54 2 -54 3 45 -23z"/>
<path d="M1475 1108 l0 -93 28 0 c18 0 26 4 22 13 -3 8 10 35 28 60 l32 47 3
-54 c2 -37 -1 -57 -10 -62 -8 -6 0 -9 22 -9 l35 0 0 93 0 93 -32 0 c-25 0 -30
-3 -21 -13 8 -10 4 -23 -17 -54 -16 -22 -32 -42 -37 -45 -13 -8 -9 91 4 104 9
9 4 12 -22 12 l-35 0 0 -92z"/>
<path d="M1680 1185 c8 -10 11 -41 8 -95 -2 -50 1 -80 7 -80 6 0 9 32 8 83 -3
89 -4 89 43 -18 l27 -60 36 75 36 75 3 -63 c2 -39 -2 -69 -9 -78 -9 -12 -6
-14 22 -14 l34 0 0 90 0 91 -28 -3 c-24 -3 -33 -12 -52 -58 l-24 -55 -27 63
c-26 59 -29 62 -62 62 -29 0 -33 -2 -22 -15z"/>
<path d="M2888 1109 l3 -87 31 -6 c49 -10 76 -7 92 10 22 21 20 41 -1 21 -17
-14 -42 -21 -70 -18 -19 2 -17 71 2 71 7 0 19 -8 24 -17 8 -14 10 -8 10 27 0
37 -2 41 -9 23 -15 -37 -40 -29 -40 12 0 33 2 35 31 35 18 0 38 -7 46 -17 12
-17 13 -16 11 7 -3 24 -6 25 -68 25 l-65 1 3 -87z"/>
<path d="M3099 1185 c-51 -28 -62 -111 -19 -150 10 -9 37 -19 59 -22 35 -5 44
-2 71 25 41 42 42 92 1 133 -33 32 -70 37 -112 14z m85 -17 c33 -46 11 -148
-31 -148 -32 0 -53 31 -53 79 0 79 49 119 84 69z"/>
<path d="M3279 1187 c15 -15 14 -150 -1 -165 -9 -9 -4 -12 23 -12 l34 0 -3 45
c-4 45 -4 45 28 45 32 0 32 0 28 -45 -3 -44 -3 -45 27 -45 l30 0 0 93 0 93
-33 1 c-26 1 -31 -2 -22 -12 6 -8 10 -26 8 -42 -2 -23 -8 -29 -35 -31 -31 -3
-33 -2 -33 30 0 19 5 39 11 45 7 7 -2 10 -31 10 -29 0 -38 -3 -31 -10z"/>
<path d="M3540 1193 c-81 -30 -81 -152 1 -178 79 -26 150 53 114 128 -22 47
-69 67 -115 50z m59 -12 c18 -12 29 -79 19 -118 -9 -33 -44 -53 -67 -39 -29
18 -32 113 -6 156 8 12 35 13 54 1z"/>
<path d="M2114 1108 c-21 -46 -40 -86 -42 -90 -2 -5 5 -8 15 -8 14 0 19 7 18
27 0 22 5 27 32 30 25 3 34 -1 43 -18 10 -17 9 -23 -1 -30 -9 -6 2 -9 30 -9
41 0 43 1 29 18 -8 9 -27 46 -42 82 -16 36 -32 69 -36 73 -4 4 -24 -29 -46
-75z m46 -20 c0 -4 -11 -8 -25 -8 -23 0 -24 2 -13 26 11 24 13 25 25 8 7 -10
13 -21 13 -26z"/>
<path d="M2410 1180 c0 -5 -17 -45 -39 -90 -33 -70 -36 -80 -20 -80 12 0 16 5
13 15 -8 21 14 45 41 45 27 0 49 -24 41 -45 -4 -12 2 -15 28 -15 l33 0 -32 68
c-18 37 -35 77 -39 90 -7 22 -26 31 -26 12z m4 -98 c-25 -6 -32 2 -22 28 l9
25 14 -25 c12 -21 12 -25 -1 -28z"/>
<path d="M2730 1126 c0 -35 -3 -71 -6 -80 -7 -17 -34 -22 -34 -6 0 6 -7 10
-16 10 -21 0 -14 -34 8 -38 9 -2 26 6 37 17 17 17 21 34 21 86 0 63 1 65 26
65 l26 0 -3 -83 c-4 -82 -4 -83 19 -79 21 4 22 9 22 88 l0 84 -50 0 -50 0 0
-64z"/>
<path d="M3705 1100 l0 -90 38 0 c88 0 136 48 85 85 -21 15 -22 17 -5 26 33
19 14 69 -27 69 -16 0 -17 -3 -8 -12 18 -18 14 -46 -7 -58 -29 -15 -31 -13
-31 30 0 35 -3 40 -22 40 -22 0 -23 -3 -23 -90z m90 -35 c0 -23 -5 -31 -22
-33 -20 -3 -23 1 -23 33 0 32 3 36 23 33 17 -2 22 -10 22 -33z"/>
<path d="M3897 1101 l-43 -91 24 0 c21 0 22 2 12 15 -10 12 -10 18 0 30 26 32
90 6 76 -30 -4 -12 2 -15 29 -15 l34 0 -41 88 c-22 48 -42 89 -44 91 -2 2 -23
-38 -47 -88z m46 -1 c4 -16 0 -20 -19 -20 -21 0 -23 2 -12 25 12 27 23 26 31
-5z"/>
<path d="M1934 1039 c-3 -6 -2 -15 4 -21 13 -13 32 -2 32 18 0 16 -26 19 -36
3z"/>
<path d="M2272 1033 c2 -10 10 -18 18 -18 22 0 18 29 -3 33 -14 3 -18 -1 -15
-15z"/>
<path d="M2534 1039 c-3 -6 -2 -15 4 -21 13 -13 32 -2 32 18 0 16 -26 19 -36
3z"/>
<path d="M4840 935 c-14 -38 -27 -74 -29 -80 -2 -5 3 -2 11 8 13 17 20 16 138
-28 162 -60 153 -54 130 -93 -16 -25 -26 -32 -52 -32 -39 0 -27 -17 18 -26
l31 -6 50 129 c28 70 50 129 49 130 -1 1 -20 10 -42 19 l-39 16 23 -24 c23
-25 28 -62 13 -87 -7 -11 -33 -4 -137 36 -118 46 -129 53 -134 79 -4 24 -8 20
-30 -41z"/>
<path d="M539 971 c-4 -21 -21 -31 -136 -75 -73 -27 -135 -47 -138 -45 -3 3
-8 19 -11 37 -5 25 -1 36 19 56 15 14 24 26 21 26 -12 0 -74 -30 -74 -36 0 -3
23 -64 51 -134 l50 -129 32 11 c40 13 60 31 32 28 -42 -5 -55 1 -70 31 -9 17
-15 32 -13 34 9 9 245 95 260 95 9 0 22 -8 27 -17 17 -30 12 -11 -18 67 -22
57 -30 69 -32 51z"/>
<path d="M983 724 c-18 -9 -42 -31 -53 -49 -40 -65 -17 -138 61 -195 23 -16
39 -30 35 -30 -14 0 -131 65 -139 78 -5 7 -18 10 -35 6 -17 -3 -22 -2 -14 3 7
6 -11 8 -50 7 -57 -2 -59 -2 -23 6 40 9 40 9 -11 6 -38 -2 -69 -13 -125 -45
-41 -23 -63 -39 -49 -35 14 4 41 17 60 30 49 34 54 30 14 -10 -39 -39 -42 -58
-15 -102 53 -87 231 -75 231 16 0 16 -4 31 -8 34 -5 3 -7 -8 -4 -23 6 -43 -29
-71 -90 -71 -71 0 -128 36 -128 79 0 20 18 11 24 -12 10 -43 99 -63 143 -32
27 19 35 60 14 79 -26 22 -56 27 -76 12 -24 -17 -13 -46 17 -45 l23 0 -22 9
c-36 15 -27 32 15 28 34 -3 37 -6 37 -33 0 -21 -7 -33 -27 -44 -24 -14 -32
-14 -69 -1 -54 19 -73 61 -41 92 16 16 33 20 89 20 66 1 77 -3 194 -61 137
-68 206 -85 304 -75 62 7 141 42 172 77 12 13 2 9 -31 -11 -65 -42 -139 -56
-220 -44 -57 9 -146 44 -146 57 0 3 13 -1 30 -10 40 -21 50 -18 20 5 -14 11
-33 20 -43 20 -30 0 -106 79 -117 121 -20 73 41 139 127 139 86 0 128 -46 86
-93 -17 -18 -17 -19 2 -33 25 -18 31 -18 55 6 26 26 25 42 -5 78 -50 59 -144
79 -212 46z"/>
<path d="M4305 721 c-40 -10 -80 -37 -99 -66 -21 -32 -20 -48 4 -70 17 -15 24
-16 45 -7 29 13 31 24 10 42 -21 17 -19 44 6 66 29 26 123 26 163 -1 41 -27
58 -72 45 -121 -14 -47 -55 -87 -128 -121 -30 -15 -50 -28 -44 -30 7 -3 22 1
35 7 22 11 22 11 3 -5 -36 -29 -123 -48 -199 -43 -69 5 -110 20 -176 65 -25
17 -25 17 -7 -4 10 -11 47 -35 82 -53 62 -31 67 -32 164 -28 l100 4 128 64
c112 56 136 65 193 68 100 5 142 -28 106 -83 -34 -52 -129 -50 -143 3 -7 29
19 55 51 50 28 -4 31 -24 4 -32 -14 -5 -18 -9 -10 -13 7 -3 19 1 27 7 43 36
-16 65 -71 35 l-32 -17 17 -32 c38 -68 133 -70 168 -3 10 20 18 27 21 18 7
-22 -32 -65 -74 -79 -75 -26 -143 4 -145 62 0 29 -1 30 -10 8 -29 -73 111
-124 192 -69 19 12 40 36 48 51 19 40 -6 92 -54 112 -40 17 -117 22 -160 10
-22 -6 -26 -5 -15 3 13 10 13 11 0 11 -8 0 -22 -5 -30 -10 -13 -8 -13 -10 0
-10 8 0 -21 -18 -64 -40 -43 -22 -80 -40 -83 -40 -2 0 15 15 39 33 55 42 88
91 88 131 0 37 -30 89 -62 109 -29 19 -94 28 -133 18z"/>
<path d="M1955 701 c-11 -4 -20 -12 -20 -17 0 -5 -13 -29 -27 -54 -53 -88 -46
-189 17 -256 37 -39 35 -43 -5 -14 -15 11 -33 33 -40 50 -7 17 -15 29 -17 26
-10 -10 30 -67 64 -91 41 -27 116 -34 156 -14 29 15 77 60 77 72 0 5 -18 -7
-40 -27 -70 -63 -143 -46 -191 44 -19 35 -17 167 3 205 35 67 85 87 136 55 18
-11 40 -36 49 -55 23 -48 33 -44 33 15 0 48 1 50 20 40 19 -10 20 -21 20 -160
0 -147 0 -149 -25 -168 -14 -11 -25 -23 -25 -26 0 -3 25 -6 55 -6 30 0 55 3
55 6 0 3 -10 14 -22 24 -22 17 -23 26 -25 165 -1 96 -6 151 -13 161 -7 8 -8
14 -2 14 5 0 15 -6 21 -14 17 -21 122 -326 112 -326 -5 0 -12 6 -14 13 -3 6
-6 7 -6 1 -1 -5 5 -18 12 -28 12 -17 19 -4 62 120 44 127 56 159 81 219 6 12
10 -41 12 -143 3 -171 -4 -204 -37 -195 -10 3 -22 0 -25 -6 -5 -8 31 -11 118
-11 114 0 152 8 111 24 -8 3 -15 16 -15 29 0 29 58 109 72 100 7 -3 8 -1 4 6
-12 18 -20 11 -68 -54 -47 -63 -86 -92 -112 -82 -14 5 -16 30 -16 165 0 167 4
181 45 178 34 -3 45 -15 130 -145 102 -158 108 -169 99 -189 -6 -14 -8 -13
-14 8 -8 24 -8 24 -9 3 -1 -13 -7 -23 -16 -23 -8 0 -15 -4 -15 -10 0 -6 33
-10 80 -10 75 0 105 11 61 23 -25 6 -144 184 -135 200 28 47 94 123 119 139
l30 18 -69 0 c-63 0 -68 -1 -50 -14 10 -8 21 -10 22 -5 2 5 13 9 25 9 22 -1
22 -1 2 -18 -11 -9 -26 -29 -33 -43 -8 -14 -24 -39 -36 -54 l-23 -29 -37 57
c-42 67 -43 75 -13 87 15 6 -17 8 -97 7 l-120 -2 -47 -134 c-27 -73 -50 -135
-52 -138 -3 -2 -26 59 -53 137 l-49 140 -55 1 c-30 1 -59 0 -65 -1 -5 -1 -14
-2 -20 -2 -5 1 -37 3 -70 6 -33 3 -69 2 -80 -3z m165 -37 c0 -14 -3 -14 -15
-4 -8 7 -15 14 -15 16 0 2 7 4 15 4 8 0 15 -7 15 -16z m480 -309 c0 -8 -7 -15
-16 -15 -14 0 -14 3 -4 15 7 8 14 15 16 15 2 0 4 -7 4 -15z m-395 -5 c3 -5 -3
-10 -15 -10 -12 0 -18 5 -15 10 3 6 10 10 15 10 5 0 12 -4 15 -10z"/>
<path d="M2950 699 c-31 -13 -59 -38 -71 -64 -10 -20 -10 -20 8 0 10 11 27 27
38 35 19 14 19 14 3 -5 -30 -36 -58 -109 -58 -153 0 -51 17 -95 56 -141 24
-29 25 -32 7 -23 -35 19 -63 68 -78 134 -9 43 -14 53 -14 32 -2 -68 45 -151
101 -180 46 -24 127 -15 172 20 20 15 36 34 36 42 0 9 -13 1 -35 -21 -30 -30
-42 -35 -81 -35 -37 0 -51 6 -74 28 -37 37 -54 101 -47 179 8 109 72 172 138
139 16 -8 38 -12 49 -9 14 4 20 0 20 -12 0 -14 -3 -15 -15 -5 -22 18 -18 4 9
-37 l25 -36 3 48 c3 42 6 49 26 50 12 1 26 -3 31 -9 5 -6 34 -83 65 -170 43
-121 54 -161 44 -167 -7 -4 -9 -11 -5 -15 13 -13 23 7 67 136 63 185 79 219
106 226 12 3 28 3 33 -1 7 -4 11 -66 11 -172 0 -156 -1 -165 -20 -170 -60 -16
4 -23 205 -23 201 0 265 7 205 23 -19 5 -20 14 -20 170 l0 165 28 10 c19 8
-56 11 -262 11 -159 1 -287 0 -285 -2 2 -1 13 -9 23 -17 13 -10 17 -10 12 -2
-5 8 0 12 13 12 25 0 27 -13 6 -30 -8 -7 -15 -20 -15 -29 0 -20 -60 -203 -70
-214 -7 -8 -90 216 -90 245 0 9 8 22 18 27 13 8 0 11 -53 11 -38 0 -108 2
-155 5 -47 2 -96 0 -110 -6z m598 -187 c1 -108 -1 -172 -7 -172 -6 0 -11 70
-13 175 -2 114 1 174 7 172 6 -2 11 -72 13 -175z m120 166 c13 -13 18 -291 6
-322 -9 -24 -71 -21 -84 3 -5 11 -10 82 -10 160 0 114 3 142 16 155 18 19 55
21 72 4z m32 -169 c0 -93 -3 -169 -7 -169 -5 0 -8 78 -8 174 0 96 3 172 8 169
4 -2 7 -80 7 -174z m151 160 c10 -19 13 -288 3 -313 -15 -39 -19 -6 -18 146 0
151 0 152 -3 23 -4 -185 -4 -187 -51 -183 l-37 3 -3 164 c-2 125 1 166 10 173
23 14 89 5 99 -13z"/>
<path d="M1473 694 c4 -4 17 -8 30 -10 12 -1 25 -3 28 -3 9 -1 32 -58 80 -198
41 -119 48 -154 23 -113 -10 17 -13 18 -9 5 4 -11 10 -28 12 -37 3 -10 8 -18
12 -18 4 0 31 70 60 155 30 86 58 158 62 161 5 3 9 14 9 24 0 10 3 21 8 24 11
6 2 -337 -9 -348 -6 -6 -9 -6 -9 1 0 6 -9 9 -20 6 -43 -11 -17 -23 50 -23 67
0 93 12 50 23 -20 5 -20 12 -18 168 3 163 3 163 28 176 23 12 21 13 -30 13
l-55 0 -49 -140 c-27 -77 -51 -138 -55 -135 -3 3 -26 65 -52 138 l-46 132 -54
3 c-29 2 -50 0 -46 -4z"/>
<path d="M1518 530 c3 -149 3 -150 -22 -175 -15 -14 -26 -28 -26 -30 0 -3 25
-5 55 -5 30 0 55 2 55 5 0 2 -11 16 -25 29 -25 25 -26 28 -24 167 0 78 -3 145
-8 150 -4 4 -7 -59 -5 -141z m12 -180 c0 -5 -7 -10 -16 -10 -8 0 -12 5 -9 10
3 6 10 10 16 10 5 0 9 -4 9 -10z"/>
<path d="M1885 640 c-15 -22 -25 -43 -21 -47 3 -3 6 -1 6 5 0 6 14 27 31 47
17 19 27 35 21 35 -5 0 -22 -18 -37 -40z"/>
<path d="M3186 650 c3 -14 11 -32 16 -40 6 -10 7 -7 2 10 -3 14 -11 32 -16 40
-6 10 -7 7 -2 -10z"/>
<path d="M966 634 c-36 -35 -13 -101 47 -139 l27 -17 0 27 c0 19 6 28 20 32
28 7 21 37 -8 41 -13 2 -32 -4 -43 -14 -10 -9 -22 -14 -26 -10 -5 4 7 20 25
34 23 19 31 33 26 45 -8 21 -47 22 -68 1z"/>
<path d="M4383 633 c-22 -8 -14 -31 17 -53 17 -12 30 -29 30 -37 0 -13 -5 -12
-24 6 -14 14 -33 21 -47 19 -30 -4 -37 -34 -9 -41 14 -4 20 -13 20 -32 l0 -27
28 17 c41 26 62 56 62 91 0 46 -37 74 -77 57z"/>
<path d="M465 608 c-54 -29 -71 -92 -35 -128 16 -16 32 -20 73 -18 l52 1 -45
4 c-25 3 -53 12 -62 20 -25 23 -23 68 4 87 27 19 89 21 106 4 8 -8 12 -8 12
-1 0 14 -45 43 -67 43 -10 0 -27 -6 -38 -12z"/>
<path d="M2856 595 c-3 -9 -6 -24 -5 -33 0 -9 5 -4 10 12 9 32 6 48 -5 21z"/>
<path d="M4864 585 c-22 -20 -24 -24 -7 -16 68 34 151 -29 114 -87 -4 -7 -28
-20 -52 -28 l-44 -14 45 4 c78 8 104 70 53 125 -40 44 -74 49 -109 16z"/>
<path d="M1306 584 c-24 -23 -19 -25 13 -6 23 13 36 14 58 6 36 -12 40 -49 5
-48 -15 0 -19 -3 -13 -9 11 -11 61 6 61 21 0 4 -9 18 -20 30 -25 26 -81 30
-104 6z"/>
<path d="M4003 566 c-24 -21 -26 -26 -14 -40 18 -21 55 -17 57 7 1 12 1 13 -3
2 -2 -8 -13 -15 -24 -15 -15 0 -20 6 -17 22 5 33 47 45 89 25 l34 -17 -24 20
c-31 27 -64 25 -98 -4z"/>
<path d="M1852 550 c0 -14 2 -19 5 -12 2 6 2 18 0 25 -3 6 -5 1 -5 -13z"/>
<path d="M1162 540 c-40 -24 -60 -64 -46 -88 34 -55 157 -69 240 -27 51 26
104 69 104 85 0 15 -19 12 -36 -5 -23 -23 -84 -19 -111 7 -13 12 -23 17 -23
10 0 -18 51 -52 79 -52 l26 -1 -25 -14 c-35 -20 -119 -19 -142 2 -17 15 -18
15 -18 -10 0 -25 -2 -25 -30 -15 -34 11 -50 49 -30 72 33 40 116 24 107 -20
-3 -16 0 -23 7 -21 6 2 12 17 14 34 2 23 -3 35 -20 47 -30 21 -56 20 -96 -4z"/>
<path d="M3226 540 c3 -14 11 -32 16 -40 6 -10 7 -7 2 10 -3 14 -11 32 -16 40
-6 10 -7 7 -2 -10z"/>
<path d="M4160 537 c-19 -10 -25 -20 -25 -46 0 -19 5 -36 10 -38 6 -2 11 9 10
24 0 23 5 29 29 31 61 7 94 -17 81 -59 -4 -13 -51 -39 -71 -39 -1 0 0 9 3 20
6 22 -7 26 -25 8 -16 -16 -102 -14 -133 3 l-24 13 33 7 c35 7 72 35 72 53 0 6
-6 4 -13 -5 -32 -42 -81 -49 -121 -18 -15 12 -29 19 -32 16 -12 -12 18 -46 66
-77 83 -53 217 -53 266 1 47 52 -58 140 -126 106z"/>
<path d="M4665 536 c28 -7 80 -29 116 -49 36 -20 72 -37 79 -37 8 0 -30 23
-84 50 -60 31 -110 50 -129 49 -27 -1 -24 -3 18 -13z"/>
<path d="M2256 490 c4 -14 13 -38 20 -55 11 -24 13 -25 8 -5 -4 14 -13 39 -20
55 -11 24 -13 25 -8 5z"/>
<path d="M1852 475 c0 -16 2 -22 5 -12 2 9 2 23 0 30 -3 6 -5 -1 -5 -18z"/>
<path d="M2709 445 c5 -11 17 -29 26 -40 l16 -20 -10 20 c-5 11 -17 29 -26 40
l-16 20 10 -20z"/>
</g>
</svg>
