<?xml version="1.0" standalone="no"?>
<!DOCTYPE svg PUBLIC "-//W3C//DTD SVG 20010904//EN"
 "http://www.w3.org/TR/2001/REC-SVG-20010904/DTD/svg10.dtd">
<svg version="1.0" xmlns="http://www.w3.org/2000/svg"
 width="512.000000pt" height="512.000000pt" viewBox="0 0 512.000000 512.000000"
 preserveAspectRatio="xMidYMid meet">

<g transform="translate(0.000000,512.000000) scale(0.100000,-0.100000)"
fill="#000000" stroke="none">
<path d="M2321 5110 c-1340 -130 -2361 -1283 -2318 -2620 13 -389 97 -726 268
-1069 249 -502 647 -900 1150 -1150 815 -406 1779 -350 2539 147 297 194 579
482 771 788 74 116 184 342 234 478 51 138 110 376 131 531 23 157 26 521 6
660 -43 299 -120 554 -246 810 -378 768 -1090 1285 -1941 1411 -122 18 -466
26 -594 14z m-228 -1359 c29 -14 122 -92 238 -200 105 -97 199 -180 210 -185
28 -13 69 17 69 51 0 20 -16 44 -57 86 l-58 58 205 -3 c183 -3 210 -5 250 -24
52 -24 684 -610 718 -666 12 -18 80 -240 151 -492 l131 -458 0 -139 0 -139
-230 0 -230 0 6 28 c31 168 32 181 11 223 -11 22 -38 60 -61 84 l-41 44 -240
40 c-132 23 -250 43 -262 46 l-23 5 0 -235 0 -235 -211 0 c-195 0 -210 1 -206
18 22 79 47 261 39 282 -7 19 -509 606 -598 699 -11 13 -21 8 -71 -31 -199
-155 -450 -234 -719 -226 -121 3 -154 17 -154 63 0 46 23 53 202 57 91 1 170
6 174 10 4 4 10 39 13 78 l7 70 -88 -6 c-77 -6 -91 -5 -108 11 -24 22 -26 58
-5 79 17 17 46 22 143 30 35 2 65 6 66 8 2 1 15 133 30 292 17 181 33 303 43
330 27 68 66 114 179 208 135 112 155 126 212 149 66 27 198 21 265 -10z
m-342 -1408 c-39 -76 -71 -143 -71 -148 0 -6 23 -76 51 -157 l51 -148 46 0
c73 0 82 -15 82 -135 0 -143 3 -140 -157 -140 -70 0 -140 3 -155 7 -36 11 -85
53 -105 91 -28 54 -163 500 -166 546 l-2 43 85 18 c113 24 239 71 330 123 41
24 77 42 78 41 2 -1 -28 -65 -67 -141z m667 -381 l36 -43 -25 -137 -25 -137
-87 -3 c-48 -1 -87 -1 -87 1 0 9 81 393 87 412 6 21 4 23 101 -93z m807 29
c190 -33 169 -16 161 -129 -3 -53 -9 -125 -13 -159 l-6 -63 -153 0 -154 0 0
78 c0 42 3 128 7 190 5 96 8 112 22 108 9 -3 70 -14 136 -25z m935 -556 l0
-95 -1060 0 -1060 0 0 88 c0 49 3 92 7 95 3 4 480 7 1060 7 l1053 0 0 -95z"/>
</g>
</svg>
