<?xml version="1.0" standalone="no"?>
<!DOCTYPE svg PUBLIC "-//W3C//DTD SVG 20010904//EN"
 "http://www.w3.org/TR/2001/REC-SVG-20010904/DTD/svg10.dtd">
<svg version="1.0" xmlns="http://www.w3.org/2000/svg"
 width="512.000000pt" height="512.000000pt" viewBox="0 0 512.000000 512.000000"
 preserveAspectRatio="xMidYMid meet">

<g transform="translate(0.000000,512.000000) scale(0.100000,-0.100000)"
fill="#797979" stroke="none">
<path d="M3640 5104 c-70 -30 -104 -78 -115 -159 -13 -97 -15 -103 -43 -110
-15 -4 -59 -21 -98 -39 l-71 -33 -52 39 c-89 68 -155 84 -224 54 -18 -7 -82
-65 -144 -127 -90 -92 -113 -121 -118 -152 -13 -66 0 -112 49 -181 25 -36 46
-70 46 -76 0 -6 -11 -32 -24 -58 -13 -26 -29 -66 -36 -89 -12 -38 -17 -43 -49
-49 -150 -24 -184 -42 -221 -115 -17 -33 -20 -59 -20 -188 0 -82 5 -162 11
-178 12 -34 55 -80 89 -98 19 -10 144 -35 174 -35 3 0 6 -5 6 -11 0 -6 16 -51
36 -100 l36 -90 -28 -39 c-80 -111 -92 -166 -54 -245 25 -52 195 -220 243
-240 75 -31 136 -17 226 52 24 18 49 33 56 33 6 0 34 -11 61 -24 27 -13 68
-30 92 -36 23 -7 42 -15 42 -17 0 -30 25 -154 35 -173 18 -34 64 -77 98 -89
16 -6 96 -11 179 -11 169 0 198 8 248 68 27 33 36 62 54 173 6 32 11 37 49 49
23 7 63 23 89 36 26 13 52 24 58 24 6 0 40 -21 76 -46 69 -49 115 -62 181 -49
31 5 60 28 152 118 62 62 120 126 127 144 30 69 14 135 -54 224 l-39 52 33 71
c18 39 36 84 39 98 6 22 14 29 44 33 145 22 188 45 222 120 25 54 27 306 4
362 -30 71 -82 106 -175 118 -80 10 -87 13 -95 43 -4 15 -21 59 -39 98 l-33
71 39 52 c68 90 84 158 53 225 -20 42 -222 242 -259 255 -66 26 -131 8 -217
-57 l-52 -39 -71 33 c-39 18 -83 35 -98 39 -30 8 -33 15 -43 95 -12 93 -47
145 -118 175 -51 21 -307 21 -357 -1z m264 -226 c3 -13 6 -34 6 -48 1 -87 53
-160 133 -185 29 -10 96 -37 150 -62 87 -40 105 -45 151 -41 44 4 65 13 121
53 l67 48 55 -56 56 -55 -48 -67 c-70 -98 -72 -140 -12 -271 24 -55 52 -122
61 -151 26 -80 100 -132 186 -133 66 -1 70 -6 70 -90 0 -83 -4 -90 -56 -90
-101 0 -177 -57 -208 -155 -10 -33 -36 -97 -57 -141 -58 -121 -54 -169 23
-270 l41 -55 -56 -57 -56 -56 -43 32 c-103 78 -165 89 -256 43 -31 -16 -90
-40 -130 -55 -153 -55 -174 -79 -197 -238 l-6 -38 -79 0 c-88 0 -83 -4 -95 85
-14 105 -53 146 -175 187 -36 11 -96 36 -135 55 -106 51 -149 45 -258 -35
l-49 -35 -56 56 -56 56 22 28 c45 58 75 116 79 158 5 35 -2 59 -35 132 -22 48
-47 111 -56 138 -33 103 -82 147 -178 160 -95 13 -88 6 -88 95 l0 79 48 6
c101 14 161 44 187 96 9 15 27 61 41 101 15 40 39 99 55 130 46 91 35 153 -43
256 l-32 43 56 56 57 56 55 -41 c101 -77 149 -81 270 -23 44 21 108 47 141 57
98 31 155 107 155 208 0 52 7 56 90 56 72 0 78 -2 84 -22z"/>
<path d="M3669 4256 c-194 -68 -309 -232 -309 -441 0 -257 200 -455 460 -455
207 0 373 121 440 320 19 54 21 81 18 162 -4 85 -9 105 -41 173 -61 127 -179
225 -308 254 -78 18 -187 13 -260 -13z m275 -214 c83 -45 130 -124 130 -222 0
-164 -150 -287 -307 -251 -227 50 -279 351 -82 467 26 15 61 30 78 35 50 12
127 0 181 -29z"/>
<path d="M1130 3361 c-36 -15 -112 -47 -169 -71 -117 -49 -165 -86 -192 -145
-25 -55 -24 -99 7 -214 l27 -98 -122 -122 -122 -122 -93 26 c-110 30 -166 31
-221 6 -65 -29 -96 -75 -169 -251 -76 -182 -84 -219 -66 -285 17 -62 60 -106
164 -167 l88 -53 0 -169 0 -170 -90 -53 c-130 -76 -172 -133 -172 -231 0 -19
32 -113 72 -210 60 -150 78 -183 114 -219 43 -42 93 -63 148 -63 15 0 74 12
131 27 l102 26 39 -44 c48 -55 85 -91 148 -148 l49 -44 -26 -102 c-40 -155
-34 -208 36 -279 36 -36 69 -54 219 -114 97 -40 191 -72 210 -72 98 0 155 42
231 172 l53 90 170 0 169 0 53 -88 c76 -129 136 -174 232 -174 30 0 285 96
369 140 74 38 121 112 121 191 0 23 -11 83 -25 135 l-26 93 122 122 122 122
98 -27 c54 -14 110 -26 126 -26 78 0 157 49 192 119 10 20 46 102 80 184 67
163 75 211 42 282 -24 52 -58 82 -159 143 l-83 50 0 168 0 168 83 49 c101 60
135 90 159 142 34 73 26 118 -53 311 -77 186 -102 223 -173 255 -54 25 -98 24
-215 -6 l-99 -25 -121 120 -120 121 25 99 c30 117 31 161 6 215 -32 71 -69 96
-255 173 -193 79 -238 87 -311 53 -52 -24 -76 -51 -139 -156 l-52 -86 -168 0
-168 0 -50 83 c-61 101 -91 135 -143 159 -58 27 -128 24 -205 -10z m175 -304
c49 -82 69 -107 106 -130 l46 -28 235 -1 c298 0 306 3 393 152 21 36 44 75 51
87 l14 22 122 -50 c68 -28 126 -54 130 -58 4 -4 -3 -47 -17 -96 -47 -171 -31
-233 91 -338 42 -36 105 -99 141 -141 105 -122 167 -138 338 -91 49 14 92 21
96 17 4 -4 30 -62 57 -130 l51 -122 -22 -14 c-12 -7 -51 -30 -87 -51 -82 -48
-107 -70 -132 -119 -18 -36 -20 -59 -20 -273 l0 -235 29 -46 c22 -37 49 -59
123 -104 51 -32 98 -59 102 -60 5 -2 -12 -53 -38 -113 -25 -61 -50 -120 -54
-132 l-9 -21 -93 24 c-108 27 -187 30 -229 9 -44 -23 -339 -323 -355 -361 -20
-48 -17 -105 11 -214 13 -52 21 -98 17 -101 -12 -10 -234 -99 -246 -99 -7 0
-32 35 -57 78 -24 42 -59 94 -77 114 -52 57 -86 64 -338 62 -288 -2 -291 -3
-390 -175 -25 -44 -51 -79 -57 -79 -7 0 -67 23 -133 51 l-121 51 23 91 c27
107 30 186 8 228 -20 39 -314 333 -353 353 -42 22 -121 19 -228 -8 l-92 -24
-50 120 c-28 67 -51 126 -51 133 0 7 28 29 63 48 100 56 145 94 168 139 20 40
22 59 24 258 1 118 -3 232 -8 252 -15 57 -60 103 -158 160 -49 29 -89 57 -89
64 0 13 89 234 99 246 3 4 49 -4 101 -17 109 -28 166 -31 214 -11 38 16 338
311 361 355 21 42 18 121 -9 229 l-24 93 36 15 c21 8 78 32 127 54 50 21 92
39 95 39 3 0 32 -46 65 -102z"/>
<path d="M1585 2469 c-133 -20 -273 -81 -377 -164 -125 -98 -228 -259 -268
-419 -27 -108 -27 -274 0 -381 123 -483 657 -727 1105 -506 185 92 322 250
390 452 165 485 -185 995 -703 1023 -48 3 -114 1 -147 -5z m220 -234 c376 -79
563 -514 357 -831 -147 -225 -412 -315 -659 -223 -302 113 -441 461 -302 754
70 149 216 264 379 299 85 19 140 19 225 1z"/>
</g>
</svg>
