<?xml version="1.0" standalone="no"?>
<!DOCTYPE svg PUBLIC "-//W3C//DTD SVG 20010904//EN"
 "http://www.w3.org/TR/2001/REC-SVG-20010904/DTD/svg10.dtd">
<svg version="1.0" xmlns="http://www.w3.org/2000/svg"
 width="512.000000pt" height="512.000000pt" viewBox="0 0 512.000000 512.000000"
 preserveAspectRatio="xMidYMid meet">

<g transform="translate(0.000000,512.000000) scale(0.100000,-0.100000)"
fill="#797979" stroke="none">
<path d="M1300 3870 c-1319 -572 -1280 -553 -1296 -634 -3 -20 -3 -52 0 -72
15 -75 38 -89 511 -293 l440 -190 5 -558 5 -558 28 -80 c115 -325 483 -588
980 -699 223 -50 314 -60 587 -60 273 0 364 10 587 60 497 111 866 374 980
699 l28 80 3 556 3 557 77 34 77 35 5 -883 c5 -872 5 -883 26 -910 39 -53 71
-69 134 -69 63 0 95 16 134 69 21 27 21 36 24 980 l2 952 206 90 c222 96 257
120 270 189 3 19 3 51 0 71 -16 82 23 63 -1286 630 -843 365 -1229 528 -1260
531 -41 3 -143 -39 -1270 -527z m2262 -237 c543 -236 988 -430 988 -433 0 -3
-34 -19 -76 -37 l-75 -32 -917 115 c-504 64 -932 113 -950 110 -46 -7 -101
-51 -119 -95 -31 -74 9 -177 81 -206 17 -7 312 -47 656 -89 344 -43 633 -80
642 -84 12 -5 -183 -93 -590 -270 -334 -144 -617 -265 -629 -268 -14 -4 -303
117 -879 366 -1101 477 -1108 480 -1116 488 -7 7 1956 861 1981 862 8 0 459
-192 1003 -427z m-1623 -1378 c533 -231 598 -257 635 -252 22 3 302 118 621
257 319 138 595 258 613 265 l33 14 -3 -467 -3 -467 -32 -66 c-141 -287 -670
-499 -1243 -499 -573 0 -1102 212 -1243 499 l-32 66 -3 468 -3 468 33 -14 c18
-8 300 -130 627 -272z"/>
</g>
</svg>
