<?xml version="1.0" standalone="no"?>
<!DOCTYPE svg PUBLIC "-//W3C//DTD SVG 20010904//EN"
 "http://www.w3.org/TR/2001/REC-SVG-20010904/DTD/svg10.dtd">
<svg version="1.0" xmlns="http://www.w3.org/2000/svg"
 width="512.000000pt" height="512.000000pt" viewBox="0 0 512.000000 512.000000"
 preserveAspectRatio="xMidYMid meet">

<g transform="translate(0.000000,512.000000) scale(0.100000,-0.100000)"
fill="#797979" stroke="none">
<path d="M2365 5113 c-27 -2 -99 -10 -160 -19 -725 -101 -1367 -507 -1780
-1124 -162 -242 -311 -598 -369 -880 -42 -205 -51 -302 -50 -540 0 -240 12
-356 60 -563 145 -636 532 -1192 1084 -1562 242 -162 598 -311 880 -369 205
-42 302 -51 540 -50 182 0 252 4 365 22 283 45 511 117 764 243 502 248 901
648 1150 1150 149 299 232 593 261 919 91 1043 -483 2057 -1424 2514 -422 205
-854 290 -1321 259z m365 -223 c714 -56 1344 -416 1752 -1001 210 -300 342
-642 399 -1034 20 -136 17 -472 -5 -620 -78 -519 -299 -958 -666 -1325 -364
-365 -808 -588 -1325 -666 -168 -25 -517 -26 -670 -1 -524 86 -956 307 -1317
673 -179 182 -307 358 -418 575 -177 346 -254 670 -254 1064 -1 218 8 305 49
500 240 1130 1303 1924 2455 1835z"/>
<path d="M2480 3669 c-66 -27 -113 -99 -113 -174 0 -194 265 -258 353 -85 41
80 17 181 -56 237 -29 22 -49 28 -98 30 -33 2 -72 -2 -86 -8z"/>
<path d="M2220 2760 l0 -110 115 0 115 0 0 -500 0 -500 -115 0 -115 0 0 -110
0 -110 340 0 340 0 0 110 0 110 -115 0 -115 0 0 610 0 610 -225 0 -225 0 0
-110z"/>
</g>
</svg>
