<?xml version="1.0" standalone="no"?>
<!DOCTYPE svg PUBLIC "-//W3C//DTD SVG 20010904//EN"
 "http://www.w3.org/TR/2001/REC-SVG-20010904/DTD/svg10.dtd">
<svg version="1.0" xmlns="http://www.w3.org/2000/svg"
 width="512.000000pt" height="512.000000pt" viewBox="0 0 512.000000 512.000000"
 preserveAspectRatio="xMidYMid meet">

<g transform="translate(0.000000,512.000000) scale(0.100000,-0.100000)"
fill="#000000" stroke="none">
<path d="M2365 5114 c-360 -37 -634 -113 -930 -258 -261 -129 -449 -262 -659
-465 -217 -212 -377 -432 -512 -706 -126 -258 -203 -511 -246 -810 -16 -117
-17 -512 0 -630 29 -205 43 -258 79 -294 30 -30 38 -33 76 -28 30 4 50 15 70
38 33 36 33 30 -3 254 -26 165 -32 457 -11 620 42 333 165 683 339 963 170
274 456 565 722 734 298 190 641 314 998 359 139 18 432 15 577 -5 538 -76
1037 -331 1399 -718 53 -56 96 -106 96 -110 0 -5 -197 -8 -439 -8 -424 0 -439
-1 -464 -20 -38 -30 -52 -80 -33 -123 28 -69 12 -67 631 -67 502 0 560 2 585
17 16 9 33 27 39 40 8 16 11 203 11 584 0 614 1 604 -59 629 -41 17 -92 6
-122 -26 l-24 -26 -3 -402 -3 -403 -87 90 c-395 406 -916 671 -1482 752 -109
16 -456 28 -545 19z"/>
<path d="M2352 3620 c-439 -35 -755 -157 -837 -325 -19 -39 -20 -64 -20 -735
0 -671 1 -696 20 -735 66 -136 280 -241 596 -294 564 -95 1216 0 1428 208 92
91 86 32 86 821 0 671 -1 696 -20 735 -74 152 -327 264 -700 310 -148 19 -414
26 -553 15z m509 -225 c212 -24 416 -83 504 -143 68 -47 58 -76 -43 -127 -176
-88 -439 -135 -762 -135 -303 0 -556 42 -735 121 -58 25 -115 70 -115 89 0 63
272 163 532 194 154 19 464 19 619 1z m-873 -560 c187 -42 340 -58 567 -58
333 -1 610 44 799 127 l56 25 0 -193 c0 -218 5 -204 -88 -251 -176 -88 -439
-135 -762 -135 -358 0 -653 59 -807 163 l-43 28 0 193 0 193 85 -34 c47 -19
133 -45 193 -58z m0 -640 c187 -42 340 -58 567 -58 333 -1 610 44 799 127 l56
25 0 -193 c0 -218 5 -204 -88 -251 -176 -88 -439 -135 -762 -135 -358 0 -653
59 -807 163 l-43 28 0 193 0 193 85 -34 c47 -19 133 -45 193 -58z"/>
<path d="M4898 3183 c-44 -28 -54 -64 -39 -147 64 -356 60 -673 -10 -989 -73
-331 -237 -673 -455 -949 -74 -94 -278 -298 -372 -372 -277 -219 -617 -382
-949 -455 -339 -76 -711 -73 -1048 6 -323 76 -661 240 -930 453 -84 66 -335
314 -335 330 0 6 163 10 439 10 424 0 439 1 464 20 38 30 52 80 33 123 -28 69
-12 67 -637 67 l-561 0 -34 -34 -34 -34 0 -368 c0 -203 3 -461 7 -574 l6 -205
34 -34 c30 -30 38 -33 76 -28 31 4 50 15 71 38 l29 33 -5 393 -6 394 117 -114
c480 -469 1060 -719 1721 -744 428 -15 837 75 1225 272 275 139 481 290 691
508 195 201 334 398 458 648 190 382 278 788 263 1214 -6 166 -24 319 -52 440
-24 100 -95 142 -167 98z"/>
</g>
</svg>
